<svg width="40" height="40" viewBox="0 0 40 40" fill="none" xmlns="http://www.w3.org/2000/svg">
<g clip-path="url(#clip0_86_25)">
<path d="M36.4785 9.94688C36.4049 9.84815 36.3125 9.7649 36.2067 9.70188C36.1009 9.63886 35.9837 9.59732 35.8618 9.57961C35.7399 9.56191 35.6157 9.5684 35.4963 9.59871C35.377 9.62902 35.2647 9.68255 35.166 9.75626L20.0442 21.0438C19.9901 21.0843 19.9243 21.1063 19.8567 21.1063C19.7891 21.1063 19.7233 21.0843 19.6692 21.0438L4.84417 9.70626C4.7463 9.63157 4.63467 9.57689 4.51566 9.54534C4.39665 9.51379 4.2726 9.50599 4.15057 9.52239C4.02855 9.53878 3.91095 9.57905 3.8045 9.6409C3.69804 9.70274 3.6048 9.78494 3.53011 9.88282C3.45542 9.9807 3.40074 10.0923 3.36919 10.2113C3.33764 10.3303 3.32985 10.4544 3.34624 10.5764C3.36264 10.6984 3.4029 10.816 3.46475 10.9225C3.52659 11.029 3.6088 11.1222 3.70667 11.1969L15.3629 20.1125L3.8348 28.8C3.73549 28.8741 3.65174 28.967 3.58833 29.0734C3.52492 29.1799 3.4831 29.2978 3.46526 29.4204C3.44741 29.543 3.45389 29.6679 3.48432 29.788C3.51475 29.9081 3.56854 30.021 3.64261 30.1203C3.71668 30.2196 3.80959 30.3034 3.91603 30.3668C4.02247 30.4302 4.14036 30.472 4.26296 30.4899C4.38557 30.5077 4.51048 30.5012 4.63058 30.4708C4.75068 30.4404 4.86361 30.3866 4.96292 30.3125L16.9098 21.2938L18.5285 22.5438C18.906 22.8327 19.3673 22.9908 19.8426 22.9942C20.3179 22.9976 20.7814 22.846 21.1629 22.5625L22.8629 21.2938L34.9504 30.3125C35.0491 30.3862 35.1614 30.4397 35.2807 30.47C35.4001 30.5002 35.5243 30.5067 35.6462 30.489C35.768 30.4713 35.8852 30.4298 35.9911 30.3668C36.0969 30.3038 36.1893 30.2206 36.2629 30.1219C36.3366 30.0232 36.3901 29.9109 36.4204 29.7916C36.4507 29.6722 36.4571 29.548 36.4394 29.4262C36.4217 29.3043 36.3802 29.1871 36.3172 29.0813C36.2542 28.9754 36.171 28.883 36.0723 28.8094L24.4285 20.1094L36.2879 11.25C36.4846 11.1015 36.6149 10.8814 36.6506 10.6376C36.6863 10.3937 36.6245 10.1455 36.4785 9.94688Z" fill="#6C4B1C"/>
<path d="M35.3125 5.9375H4.6875C3.4443 5.9375 2.25201 6.43136 1.37294 7.31044C0.49386 8.18951 0 9.3818 0 10.625L0 29.375C0 30.6182 0.49386 31.8105 1.37294 32.6896C2.25201 33.5686 3.4443 34.0625 4.6875 34.0625H35.3125C36.5557 34.0625 37.748 33.5686 38.6271 32.6896C39.5061 31.8105 40 30.6182 40 29.375V10.625C40 9.3818 39.5061 8.18951 38.6271 7.31044C37.748 6.43136 36.5557 5.9375 35.3125 5.9375ZM38.125 29.375C38.125 30.1209 37.8287 30.8363 37.3012 31.3637C36.7738 31.8912 36.0584 32.1875 35.3125 32.1875H4.6875C3.94158 32.1875 3.22621 31.8912 2.69876 31.3637C2.17132 30.8363 1.875 30.1209 1.875 29.375V10.625C1.875 9.87908 2.17132 9.16371 2.69876 8.63626C3.22621 8.10882 3.94158 7.8125 4.6875 7.8125H35.3125C36.0584 7.8125 36.7738 8.10882 37.3012 8.63626C37.8287 9.16371 38.125 9.87908 38.125 10.625V29.375Z" fill="#6C4B1C"/>
</g>
<defs>
<clipPath id="clip0_86_25">
<rect width="40" height="40" fill="white"/>
</clipPath>
</defs>
</svg>
