<svg width="20" height="32" viewBox="0 0 20 32" fill="none" xmlns="http://www.w3.org/2000/svg">
<path d="M16.3063 6.07215H19.3465V0.521942H13.8219C13.3612 0.502575 7.74327 0.395189 6.28699 5.94795C6.26577 6.00631 5.80069 7.32651 5.80069 10.4114L0.749268 10.4264V16.2478L5.80728 16.2328V31.5866H13.5332V16.2459H18.6468V10.4095H13.5332V8.57307C13.5332 7.43197 14.0141 6.07215 16.3063 6.07215ZM17.3684 11.6879V14.9675H12.2548V30.3082H7.08567V14.9506L2.02766 14.9657V11.701L7.09877 11.686L7.08567 11.0359C7.01951 7.76845 7.48517 6.39392 7.50607 6.3284C8.7626 1.54568 13.561 1.78659 13.7669 1.79906L18.0681 1.80033V4.79376H16.3063C13.3191 4.79376 12.2548 6.74599 12.2548 8.57307V11.6879H17.3684Z" fill="#6C4B1C"/>
</svg>
