<svg width="22" height="25" viewBox="0 0 22 25" fill="none" xmlns="http://www.w3.org/2000/svg">
<path d="M10.7144 12.5C11.9505 12.5 13.1589 12.1334 14.1867 11.4467C15.2145 10.7599 16.0156 9.78381 16.4886 8.64178C16.9617 7.49974 17.0854 6.24307 16.8443 5.03069C16.6031 3.81831 16.0079 2.70466 15.1338 1.83059C14.2597 0.956507 13.1461 0.361252 11.9337 0.120095C10.7213 -0.121063 9.46462 0.00270802 8.32258 0.475756C7.18055 0.948803 6.20443 1.74988 5.51767 2.77769C4.83091 3.8055 4.46436 5.01387 4.46436 6.25C4.46436 7.90761 5.12284 9.49732 6.29494 10.6694C7.46704 11.8415 9.05675 12.5 10.7144 12.5ZM10.7144 1.78572C11.5973 1.78572 12.4604 2.04754 13.1946 2.53808C13.9287 3.02863 14.5009 3.72585 14.8388 4.54159C15.1767 5.35734 15.2651 6.25496 15.0929 7.12094C14.9206 7.98693 14.4954 8.78239 13.8711 9.40673C13.2467 10.0311 12.4513 10.4563 11.5853 10.6285C10.7193 10.8008 9.82169 10.7124 9.00595 10.3745C8.19021 10.0366 7.49298 9.46438 7.00244 8.73023C6.5119 7.99608 6.25007 7.13296 6.25007 6.25C6.25007 5.066 6.72041 3.93049 7.55763 3.09328C8.39485 2.25606 9.53035 1.78572 10.7144 1.78572Z" fill="#727171"/>
<path d="M11.6071 14.2858H9.82143C7.21662 14.2858 4.7185 15.3205 2.87663 17.1624C1.03475 19.0043 0 21.5024 0 24.1072C0 24.344 0.0940688 24.5711 0.261512 24.7385C0.428955 24.906 0.656057 25.0001 0.892857 25.0001H20.5357C20.7725 25.0001 20.9996 24.906 21.1671 24.7385C21.3345 24.5711 21.4286 24.344 21.4286 24.1072C21.4286 21.5024 20.3938 19.0043 18.5519 17.1624C16.7101 15.3205 14.2119 14.2858 11.6071 14.2858ZM1.83929 23.2143C2.05884 21.2506 2.99421 19.4366 4.46668 18.119C5.93915 16.8014 7.84548 16.0724 9.82143 16.0715H11.6071C13.5831 16.0724 15.4894 16.8014 16.9619 18.119C18.4344 19.4366 19.3697 21.2506 19.5893 23.2143H1.83929Z" fill="#727171"/>
</svg>
