<svg viewBox="0 0 59 69" fill="none" xmlns="http://www.w3.org/2000/svg">
<path d="M54.0301 22.2202C53.9848 22.1917 53.9431 22.1572 53.9068 22.1175C53.8802 22.0921 53.8505 22.0641 53.8163 22.0333C53.8822 21.8815 53.9521 21.7279 54.023 21.5711C54.2444 21.1204 54.428 20.6522 54.5729 20.1713C54.6543 19.8701 54.7419 19.569 54.8299 19.2669C55.1951 18.1682 55.4335 17.0314 55.5412 15.8785C55.5835 15.2429 55.4879 14.6057 55.262 14.01C55.0367 13.4144 54.685 12.8742 54.2328 12.426C53.7373 11.9508 53.1473 11.5859 52.5009 11.3553C51.8545 11.1246 51.1663 11.0334 50.4822 11.0875C50.2312 11.1043 49.9806 11.1297 49.7054 11.1575L49.5007 11.178L49.6067 10.3271C49.7114 9.48622 49.8096 8.69847 49.9062 7.91036C50.1371 6.02549 49.4089 4.86498 48.7572 4.22311C48.2108 3.72033 47.5584 3.34657 46.8485 3.12941C46.1384 2.91225 45.3886 2.85727 44.6543 2.96854C43.2901 3.15703 42.0038 3.73844 40.6072 4.79889C40.3153 5.02042 40.0311 5.26118 39.7019 5.53951L39.4186 5.7792C39.4186 5.61144 39.4209 5.45263 39.4225 5.30112C39.4275 4.79662 39.4315 4.36079 39.413 3.92828C39.3067 1.50989 37.9603 0.159187 35.5171 0.0228139C34.8419 -0.0451965 34.1601 0.039314 33.5219 0.270157C32.8837 0.50095 32.3056 0.872139 31.8301 1.35631C30.9941 2.21902 30.2171 3.16231 29.4656 4.07421C29.2249 4.36607 28.9844 4.65793 28.7414 4.94783C24.2377 10.3261 20.3951 16.3054 16.6785 22.0832L15.9227 23.2582C15.7068 23.594 15.4803 23.9232 15.2557 24.2504C15.1798 24.3613 15.1036 24.4716 15.0283 24.5806L15.0147 24.573C15.0022 24.5657 14.9909 24.5597 14.9817 24.5542C14.9318 24.4115 14.8859 24.2675 14.8397 24.1232C14.7872 23.9582 14.7345 23.7948 14.6774 23.632C13.3491 19.8711 10.9795 17.1704 7.63596 15.6051C6.87814 15.2233 6.03434 15.0446 5.18678 15.0863C4.33931 15.128 3.51705 15.3888 2.8004 15.8431C2.07 16.3366 1.47773 17.0085 1.07995 17.7951C0.682177 18.5817 0.49215 19.4569 0.527644 20.3377C0.576066 21.2428 0.721922 22.1401 0.962755 23.0139L1.04465 23.3626C1.80402 26.6219 2.02351 29.1404 1.75608 31.5298C1.56128 33.2691 1.31967 35.0341 1.08592 36.7404C0.860422 38.3879 0.626918 40.0912 0.435755 41.7717C0.176394 43.9061 0.0309719 46.0526 0 48.2026C0.0118465 49.4058 0.220435 50.599 0.617436 51.7354C3.20822 59.4459 8.2719 64.6045 15.6678 67.0679C17.69 67.7576 19.8104 68.1157 21.9469 68.1283C24.0953 68.1278 26.2259 67.7379 28.2354 66.9774C31.6033 65.7062 34.6541 63.7172 37.1758 61.1487C40.4801 57.8141 43.9682 54.2259 47.0916 50.256C49.7819 46.8368 53.1301 42.5816 55.4979 37.9501C56.7933 35.4976 57.8381 32.9211 58.6168 30.2593C59.6626 26.5021 57.906 23.4207 54.0301 22.2202ZM4.87409 22.0409C4.64426 21.2976 4.49496 20.5318 4.42849 19.7565C4.39547 19.0962 4.55492 18.5987 4.89069 18.3147C5.24231 18.0176 5.79404 17.9446 6.48441 18.0991C7.50094 18.3511 8.41607 18.9079 9.10719 19.6948C11.2559 21.9686 12.1621 24.0199 12.0456 26.3406C11.9778 27.0389 11.8256 27.726 11.5922 28.3876C11.5384 28.5629 11.4849 28.7376 11.4344 28.9119C11.2172 29.6611 11.1096 30.5037 11.9595 31.0728C12.6822 31.5569 13.4947 31.4627 14.1894 30.8146C14.6397 30.3723 15.0385 29.88 15.378 29.3474C16.6464 27.4602 17.91 25.5694 19.1686 23.6749C21.7468 19.8051 24.4128 15.8035 27.1016 11.9149C28.6025 9.74443 30.3065 7.65583 31.955 5.63755C32.3149 5.19729 32.6739 4.75623 33.0323 4.31426C33.5057 3.71666 34.1059 3.23173 34.7897 2.89454C35.3758 2.62612 35.8935 2.61657 36.2494 2.86647C36.6053 3.11643 36.7668 3.6001 36.7139 4.23368C36.6595 5.28432 36.4201 6.31715 36.007 7.28474C35.0258 9.37259 33.9379 11.4088 32.7481 13.3851C30.9764 16.3209 29.1304 19.2798 27.3458 22.1413C26.5015 23.4943 25.659 24.8479 24.8182 26.2023C24.66 26.4526 24.5326 26.7206 24.4386 27.0013C24.3038 27.3298 24.2965 27.6969 24.4184 28.0307C24.5402 28.3642 24.7824 28.6406 25.0972 28.805C25.2441 28.906 25.4101 28.976 25.5851 29.01C25.76 29.0443 25.9401 29.042 26.1142 29.0037C26.2883 28.9654 26.4526 28.8918 26.597 28.7871C26.7414 28.6825 26.8625 28.5494 26.9533 28.3959C27.1732 28.0829 27.3991 27.7732 27.6249 27.4639C28.1825 26.7292 28.6988 25.9643 29.1711 25.1722C31.6803 20.7711 34.8498 16.7339 37.6456 13.1718C38.7021 11.8267 39.8947 10.372 41.4009 8.59379C42.2837 7.51759 43.4733 6.73537 44.8111 6.351C45.5249 6.15029 46.002 6.16216 46.2674 6.38868C46.5329 6.61515 46.6207 7.08629 46.5345 7.82817C46.245 10.3252 45.1281 12.5435 44.0742 14.3838C41.1272 19.531 37.5621 24.6419 32.8536 30.469C32.6186 30.7602 32.363 31.0461 32.1161 31.3224C31.7697 31.7104 31.4112 32.1112 31.0972 32.5391C30.6746 33.1142 30.5359 33.6732 30.6941 34.1569C30.8561 34.6521 31.3174 35.0288 32.0272 35.2497C33.1267 35.5921 34.101 35.2685 34.9218 34.2886L35.3318 33.8003C36.2741 32.6797 37.2468 31.5222 38.09 30.2963C40.1255 27.3324 42.1358 24.2797 44.0801 21.3271L44.9481 20.0091C45.2677 19.5248 45.5583 19.0133 45.8396 18.5191C46.0287 18.1856 46.2182 17.8522 46.417 17.525C47.2669 16.1525 48.5452 15.0983 50.0546 14.5255C50.8413 14.2079 51.4359 14.2775 51.9269 14.7444C52.4174 15.2112 52.3726 15.7679 52.1633 16.4724C51.4022 19.1217 50.2015 21.6245 48.6119 23.8767C46.9733 26.1505 45.2687 28.4352 43.6196 30.645C42.5264 32.1102 41.4369 33.5781 40.351 35.0483C39.8626 35.7129 39.3965 36.4086 38.9458 37.0814C38.5929 37.6097 38.2277 38.1541 37.8546 38.6791C37.2174 39.5775 37.2375 40.4573 37.9167 41.3699C38.3112 41.8998 38.7355 42.1702 39.1783 42.1738H39.1878C39.4315 42.1544 39.6669 42.0781 39.8759 41.9513C40.0849 41.8242 40.2611 41.6502 40.3906 41.4432C40.8822 40.8073 41.3457 40.1364 41.7947 39.4877C42.1104 39.0311 42.4267 38.5745 42.7522 38.1261C43.3465 37.3135 43.9378 36.4994 44.5262 35.6829C46.3876 33.1129 48.3125 30.4551 50.3071 27.9241C50.8781 27.2004 51.946 26.7645 52.8887 26.3799L53.0969 26.2948C53.2383 26.233 53.3922 26.205 53.5462 26.2135C53.7006 26.2218 53.8505 26.2663 53.9838 26.3433C54.1508 26.4506 54.2907 26.5952 54.3933 26.7652C54.4954 26.9353 54.5573 27.1268 54.5739 27.3245C54.7464 28.6504 54.687 29.6478 54.3928 30.3745C53.1191 33.5186 51.8358 36.3323 50.4706 38.9759C48.6443 42.5127 46.2064 45.6647 43.8444 48.5436C43.1881 49.3434 42.598 50.2157 42.0285 51.0593C41.425 51.9864 40.7719 52.8803 40.0727 53.7375C38.4466 55.657 36.5752 57.4881 34.9248 59.1033C32.7329 61.2146 30.111 62.8273 27.2383 63.8314C24.394 64.8591 21.1807 64.8188 17.688 63.7101C11.1333 61.6301 6.59629 57.0922 4.20263 50.2238C3.94559 49.3696 3.79653 48.4873 3.75912 47.5969C3.73106 47.2533 3.70412 46.9289 3.66417 46.6371C3.72723 46.0616 3.78256 45.5249 3.83572 45.0143C3.94632 43.9434 4.04243 43.0178 4.17021 42.0821C4.34717 40.7892 4.53706 39.4982 4.7269 38.2073C5.01711 36.2349 5.31692 34.1952 5.56391 32.1825C5.99928 28.7895 5.76487 25.3439 4.87409 22.0409Z" fill="#6C4B1C"/>
</svg>
