<svg width="19" height="25" viewBox="0 0 19 25" fill="none" xmlns="http://www.w3.org/2000/svg">
<path d="M16.6493 10.8038H15.0836V7.46346C15.0836 4.22755 12.4218 1.56576 9.18587 1.56576C5.94996 1.56576 3.28817 4.22755 3.28817 7.46346V10.8038H1.72241V7.46346C1.72241 3.34029 5.0627 0 9.18587 0C13.309 0 16.6493 3.34029 16.6493 7.46346V10.8038Z" fill="#727171"/>
<path d="M15.8664 24.9999H2.50523C1.14824 24.9999 0 23.8517 0 22.4947V12.4738C0 11.1168 1.14824 9.96863 2.50523 9.96863H15.8664C17.2234 9.96863 18.3716 11.1168 18.3716 12.4738V22.4947C18.3716 23.9039 17.2234 24.9999 15.8664 24.9999ZM2.50523 11.6388C2.0355 11.6388 1.67015 12.0041 1.67015 12.4738V22.4947C1.67015 22.9645 2.0355 23.3298 2.50523 23.3298H15.8664C16.3361 23.3298 16.7015 22.9645 16.7015 22.4947V12.4738C16.7015 12.0041 16.3361 11.6388 15.8664 11.6388H2.50523Z" fill="#727171"/>
<path d="M10.8559 14.9791C10.8559 15.9186 10.1252 16.6492 9.18577 16.6492C8.24631 16.6492 7.51562 15.9186 7.51562 14.9791C7.51562 14.0397 8.24631 13.309 9.18577 13.309C10.1252 13.309 10.8559 14.0918 10.8559 14.9791Z" fill="#727171"/>
<path d="M9.60325 14.9791H8.76817L7.93311 19.9896H10.4383L9.60325 14.9791Z" fill="#727171"/>
</svg>
