<svg width="68" height="68" viewBox="0 0 68 68" fill="none" xmlns="http://www.w3.org/2000/svg">
<path d="M59.8397 41.8744C59.8397 42.4388 59.8397 42.9964 59.7819 43.5506C59.6037 46.3185 58.9648 49.0374 57.8915 51.595H13.1679C12.0947 49.0374 11.4557 46.3185 11.2775 43.5506C11.2197 42.9964 11.2197 42.4388 11.2197 41.8744C11.2197 28.3152 21.9705 17.2278 35.5297 16.4492C49.0889 17.2278 59.8397 28.3152 59.8397 41.8744Z" fill="#D8BB93"/>
<path d="M25.1021 17.952V33.609C25.1021 34.3304 24.8155 35.0222 24.3054 35.5323C23.7953 36.0424 23.1035 36.329 22.3821 36.329C21.6607 36.329 20.9689 36.0424 20.4588 35.5323C19.9487 35.0222 19.6621 34.3304 19.6621 33.609V20.689C21.3615 19.5659 23.1875 18.6472 25.1021 17.952ZM48.3377 20.6856V33.6056C48.3377 34.327 48.0511 35.0188 47.541 35.5289C47.0309 36.039 46.3391 36.3256 45.6177 36.3256C44.8963 36.3256 44.2045 36.039 43.6944 35.5289C43.1843 35.0188 42.8977 34.327 42.8977 33.6056V17.9656C44.8131 18.652 46.6394 19.5652 48.3377 20.6856ZM37.2741 16.6124V34.17C37.2688 34.3889 37.1786 34.5972 37.0225 34.7507C36.8664 34.9043 36.6567 34.9911 36.4377 34.9928H31.6777C31.4587 34.9911 31.249 34.9043 31.0929 34.7507C30.9368 34.5972 30.8466 34.3889 30.8413 34.17V16.5954C29.9602 16.7002 29.0852 16.8511 28.2199 17.0476V34.17C28.228 35.0826 28.5976 35.9547 29.2477 36.5953C29.8978 37.2358 30.7753 37.5924 31.6879 37.587H36.4479C37.3608 37.5924 38.2387 37.2359 38.8894 36.5955C39.54 35.955 39.9103 35.0829 39.9193 34.17V17.0748C39.0464 16.8736 38.1635 16.7193 37.2741 16.6124Z" fill="#6C4B1C"/>
<path d="M59.8402 41.8778C59.8402 42.4422 59.8402 42.9998 59.7824 43.554C59.6041 46.3219 58.9652 49.0408 57.892 51.5984H10.1084C9.03508 49.0408 8.39617 46.3219 8.21796 43.554C8.16016 42.9998 8.16016 42.4388 8.16016 41.8778C8.16016 27.812 19.7202 16.4084 34.0002 16.4084C48.2802 16.4084 59.8402 27.812 59.8402 41.8778V41.8778Z" stroke="#6C4B1C" stroke-width="2" stroke-linecap="round" stroke-linejoin="round"/>
<path d="M66.8677 45.22V49.912C66.8615 50.3587 66.6796 50.785 66.3615 51.0987C66.0434 51.4124 65.6145 51.5882 65.1677 51.5882H6.40215C5.95537 51.5882 5.52654 51.4124 5.2084 51.0987C4.89027 50.785 4.7084 50.3587 4.70215 49.912V45.22C4.7084 44.7733 4.89027 44.3469 5.2084 44.0333C5.52654 43.7196 5.95537 43.5437 6.40215 43.5438H65.1677C65.6145 43.5437 66.0434 43.7196 66.3615 44.0333C66.6796 44.3469 66.8615 44.7733 66.8677 45.22Z" fill="#D8BB93"/>
<path d="M66.8674 45.22V49.912C66.8612 50.3587 66.6793 50.785 66.3612 51.0987C66.0431 51.4124 65.6142 51.5882 65.1674 51.5882H2.83184C2.38506 51.5882 1.95623 51.4124 1.63809 51.0987C1.31995 50.785 1.13809 50.3587 1.13184 49.912V45.22C1.13809 44.7733 1.31995 44.3469 1.63809 44.0333C1.95623 43.7196 2.38506 43.5437 2.83184 43.5438H65.1674C65.6142 43.5437 66.0431 43.7196 66.3612 44.0333C66.6793 44.3469 66.8612 44.7733 66.8674 45.22V45.22Z" stroke="#6C4B1C" stroke-width="2" stroke-linecap="round" stroke-linejoin="round"/>
</svg>
