<svg viewBox="0 0 68 68" fill="none" xmlns="http://www.w3.org/2000/svg">
<path d="M53.6347 12.92H14.3647C12.6278 12.92 11.2197 14.3281 11.2197 16.065V49.555C11.2197 51.292 12.6278 52.7 14.3647 52.7H53.6347C55.3717 52.7 56.7797 51.292 56.7797 49.555V16.065C56.7797 14.3281 55.3717 12.92 53.6347 12.92Z" fill="#D8BB93" stroke="#6C4B1C" stroke-width="2" stroke-miterlimit="10"/>
<path d="M8.56088 46.0122H59.4385C59.5205 46.0122 59.5992 46.0448 59.6573 46.1028C59.7153 46.1608 59.7479 46.2396 59.7479 46.3216V66.13H8.25488V46.3216C8.25488 46.2401 8.28701 46.1619 8.3443 46.104C8.40159 46.0461 8.47942 46.0131 8.56088 46.0122Z" fill="#D8BB93" stroke="#6C4B1C" stroke-width="2" stroke-miterlimit="10"/>
<path d="M14.96 4.92999H53.04V66.13H14.96V4.92999Z" fill="white"/>
<path d="M50.4291 4.92999H21.1687C19.766 4.92999 18.6289 6.0671 18.6289 7.46979V63.5902C18.6289 64.9929 19.766 66.13 21.1687 66.13H50.4291C51.8318 66.13 52.9689 64.9929 52.9689 63.5902V7.46979C52.9689 6.0671 51.8318 4.92999 50.4291 4.92999Z" fill="#D8BB93"/>
<path d="M30.2602 8.32999H37.7402V15.9222H30.2602V8.32999ZM41.538 8.32999H49.018V15.9222H41.538V8.32999ZM18.9824 8.32999H26.4624V15.9222H18.9824V8.32999ZM30.2602 18.9822H37.7402V26.5744H30.2602V18.9822ZM41.538 18.9822H49.018V26.5744H41.538V18.9822ZM18.9824 18.9822H26.4624V26.5744H18.9824V18.9822ZM30.2602 29.6378H37.7402V37.23H30.2602V29.6378ZM41.538 29.6378H49.018V37.23H41.538V29.6378ZM18.9824 29.6378H26.4624V37.23H18.9824V29.6378ZM41.538 40.29H49.018V47.8822H41.538V40.29ZM30.2602 40.29H37.7402V47.8822H30.2602V40.29ZM18.9824 40.29H26.4624V47.8822H18.9824V40.29ZM30.2602 50.9422H37.7402V58.5344H30.2602V50.9422ZM41.538 50.9422H49.018V58.5344H41.538V50.9422ZM18.9824 50.9422H26.4624V58.5344H18.9824V50.9422Z" fill="white" stroke="#6C4B1C" stroke-width="2" stroke-linecap="round" stroke-linejoin="round"/>
<path d="M15.9358 1.87H52.0642C52.1923 1.87 52.3192 1.89523 52.4376 1.94427C52.556 1.99331 52.6635 2.06519 52.7542 2.1558C52.8448 2.24641 52.9166 2.35398 52.9657 2.47237C53.0147 2.59076 53.04 2.71765 53.04 2.8458V66.13H14.96V2.8458C14.96 2.587 15.0628 2.3388 15.2458 2.1558C15.4288 1.9728 15.677 1.87 15.9358 1.87V1.87Z" stroke="#6C4B1C" stroke-width="2" stroke-linecap="round" stroke-linejoin="round"/>
</svg>
