<svg viewBox="0 0 28 28" fill="none" xmlns="http://www.w3.org/2000/svg">
<path d="M19.7585 1.18265H7.38059C3.64931 1.18265 0.624512 4.20745 0.624512 7.93873V20.3167C0.624512 24.0479 3.64931 27.0727 7.38059 27.0727H19.7585C23.4898 27.0727 26.5146 24.0479 26.5146 20.3167V7.93873C26.5146 4.20745 23.4898 1.18265 19.7585 1.18265Z" stroke="#6C4B1C" stroke-linecap="round" stroke-linejoin="round"/>
<path d="M13.5696 20.9084C17.3145 20.9084 20.3503 17.8726 20.3503 14.1277C20.3503 10.3828 17.3145 7.34695 13.5696 7.34695C9.82466 7.34695 6.78882 10.3828 6.78882 14.1277C6.78882 17.8726 9.82466 20.9084 13.5696 20.9084Z" stroke="#6C4B1C" stroke-linecap="round" stroke-linejoin="round"/>
<path d="M20.9668 6.11409C21.3072 6.11409 21.5832 5.8381 21.5832 5.49766C21.5832 5.15721 21.3072 4.88123 20.9668 4.88123C20.6263 4.88123 20.3503 5.15721 20.3503 5.49766C20.3503 5.8381 20.6263 6.11409 20.9668 6.11409Z" stroke="#6C4B1C" stroke-linecap="round" stroke-linejoin="round"/>
</svg>
