<svg width="32" height="32" viewBox="0 0 32 32" fill="none" xmlns="http://www.w3.org/2000/svg">
<path fill-rule="evenodd" clip-rule="evenodd" d="M16.5 3L4 14V28.0059C4 29.1072 4.88976 30 6.00359 30H26.9964C28.103 30 29 29.1055 29 28.0059V14L16.5 3ZM13.5 23L6.5 29H26.5L19.5 23H13.5ZM16.5 4.3L27.5 14L18.5 22H14.5L5.5 14L16.5 4.3ZM27.6851 28.7252L20 22.0171L28 15V21.5V28C28 28.2832 27.879 28.5419 27.6851 28.7252ZM5.31486 28.7252L13 22.0171L5 15V21.5V28C5 28.2832 5.12101 28.5419 5.31486 28.7252Z" fill="#727171"/>
</svg>
