<svg width="40" height="40" viewBox="0 0 40 40" fill="none" xmlns="http://www.w3.org/2000/svg">
<path d="M39.1575 30.3939C38.4853 29.2969 37.442 28.0192 36.2164 26.7952C35.3293 25.9082 32.2841 23.0159 30.3261 23.0159C29.6978 23.0159 29.2991 23.2845 29.0761 23.5075L26.4687 26.1133C26.4247 26.1572 26.2847 26.2077 26.0325 26.2077C24.5855 26.2077 21.5175 24.6061 18.4527 21.543C14.3658 17.4544 13.3827 14.0267 13.8824 13.527L16.4866 10.9212C16.7112 10.6966 16.9797 10.2979 16.9797 9.67122C16.9813 7.71159 14.0875 4.66634 13.2004 3.7793C12.315 2.89225 9.27139 0 7.31012 0C6.6835 0 6.28473 0.266927 6.06012 0.491536L0.846908 5.70475C-0.692805 7.24284 -0.131282 10.2523 2.51683 14.6484C4.81501 18.4635 8.4527 22.9362 12.7561 27.2396C20.3896 34.873 28.119 40.0016 31.9895 40C32.953 40 33.7261 39.7135 34.2909 39.1488L39.5041 33.9355C40.6321 32.8076 39.522 30.9912 39.1575 30.3939ZM32.5233 37.3812C32.4647 37.4381 32.2955 37.5 31.9895 37.5C29.3544 37.5 22.3378 33.2845 14.5237 25.472C10.3586 21.307 6.85602 17.0052 4.65876 13.3577C2.18317 9.24967 2.41592 7.6709 2.61449 7.47233L7.52171 2.5651C8.16136 2.8125 9.64411 3.75651 11.4328 5.54688C13.2216 7.33724 14.1672 8.81836 14.4146 9.45801L12.1148 11.7594C9.71735 14.1569 12.8033 19.4271 16.6851 23.3105C20.0152 26.6406 23.5976 28.7077 26.0325 28.7077C27.1702 28.7077 27.8586 28.2585 28.2362 27.8809L30.5377 25.5811C31.1773 25.8284 32.6584 26.7741 34.4488 28.5628C36.2375 30.3516 37.1832 31.8343 37.4306 32.474L32.5233 37.3812Z" fill="#6C4B1C"/>
</svg>
