<svg viewBox="0 0 62 61" fill="none" xmlns="http://www.w3.org/2000/svg">
<path d="M42.9023 46.7603C42.9023 43.5778 41.638 40.5256 39.3876 38.2751C37.1372 36.0247 34.085 34.7605 30.9024 34.7605C27.7199 34.7605 24.6677 36.0247 22.4173 38.2751C20.1669 40.5256 18.9026 43.5778 18.9026 46.7603M36.6307 23.9425C36.6307 25.4592 36.0282 26.9138 34.9557 27.9863C33.8833 29.0587 32.4287 29.6613 30.912 29.6613C29.3953 29.6613 27.9407 29.0587 26.8682 27.9863C25.7957 26.9138 25.1932 25.4592 25.1932 23.9425C25.1932 22.4258 25.7957 20.9712 26.8682 19.8987C27.9407 18.8263 29.3953 18.2238 30.912 18.2238C32.4287 18.2238 33.8833 18.8263 34.9557 19.8987C36.0282 20.9712 36.6307 22.4258 36.6307 23.9425V23.9425Z" stroke="#6C4B1C" stroke-width="2" stroke-linecap="round" stroke-linejoin="round"/>
<path d="M30.9119 51.4688C42.4926 51.4688 51.8806 42.0807 51.8806 30.5C51.8806 18.9193 42.4926 9.53125 30.9119 9.53125C19.3311 9.53125 9.94312 18.9193 9.94312 30.5C9.94312 42.0807 19.3311 51.4688 30.9119 51.4688Z" stroke="#6C4B1C" stroke-width="2" stroke-linecap="round" stroke-linejoin="round"/>
</svg>
