<svg viewBox="0 0 30 30" fill="none" xmlns="http://www.w3.org/2000/svg">
<path d="M14.8499 29.7544C12.0197 29.7544 9.31809 28.9826 7.00246 27.4388L1.8566 29.1112C1.59931 29.2399 1.34202 29.1112 1.21337 28.9826C1.08472 28.8539 0.956076 28.5966 1.08472 28.3393L2.75713 23.4508C1.08472 21.0065 0.184198 18.0476 0.184198 15.0888C0.0555517 6.85538 6.74516 0.165771 14.8499 0.165771C22.9546 0.165771 29.6442 6.85538 29.6442 14.9601C29.6442 23.0648 22.9546 29.7544 14.8499 29.7544ZM7.1311 26.1523C7.25975 26.1523 7.3884 26.1523 7.51704 26.281C9.70403 27.6961 12.277 28.468 14.9785 28.468C22.44 28.468 28.4864 22.4216 28.4864 14.9601C28.4864 7.49862 22.3114 1.45224 14.8499 1.45224C7.3884 1.45224 1.34202 7.49862 1.34202 14.9601C1.34202 17.7903 2.24254 20.6205 3.91494 22.9362C4.04359 23.0648 4.04359 23.3221 4.04359 23.5794L2.62848 27.6961L6.87381 26.4096C7.00246 26.1523 7.00246 26.1523 7.1311 26.1523ZM19.4812 23.5794C18.452 23.5794 17.1655 23.1935 15.1072 22.4216C11.6337 21.0065 9.0608 17.7903 7.90298 16.1179L7.77433 15.9893C7.1311 14.9601 5.97329 13.1591 5.97329 11.2294C5.97329 9.04237 7.1311 7.88455 7.51704 7.36997C8.03163 6.85538 8.67486 6.59809 9.44674 6.59809C9.57538 6.59809 9.70403 6.59809 9.83268 6.59809C10.6046 6.59809 10.9905 6.85538 11.3764 7.75591L11.7624 8.52779C12.1483 9.42831 12.6629 10.5861 12.6629 10.7148C12.9202 11.2294 12.9202 11.6153 12.6629 12.0012C12.5343 12.2585 12.4056 12.5158 12.1483 12.7731C12.0197 12.9018 11.891 13.0304 11.7624 13.1591C11.6337 13.2877 11.5051 13.4163 11.3764 13.545C11.6337 13.6736 11.5051 13.6736 11.5051 13.6736C12.1483 14.7028 12.9202 15.6033 13.6921 16.3752C15.1072 17.533 16.1363 18.0476 16.6509 18.3049H16.7796C16.9082 18.3049 16.9082 18.4336 17.0369 18.3049C17.2942 18.0476 17.6801 17.533 17.9374 17.0184L18.066 16.8898C18.452 16.3752 18.9666 16.2466 19.2239 16.2466C19.3525 16.2466 19.6098 16.2466 19.8671 16.3752C20.253 16.5039 21.6681 17.1471 22.6973 17.7903L22.9546 17.919C23.3405 18.0476 23.5978 18.1763 23.7265 18.5622C23.9838 19.0768 23.8551 20.2346 23.5978 21.0065C23.2119 22.1643 21.6681 23.1935 20.3817 23.4508C20.1244 23.4508 19.8671 23.5794 19.4812 23.5794ZM9.57538 7.88455C9.18945 7.88455 8.80351 8.0132 8.54621 8.14185C8.16027 8.52779 7.25975 9.42831 7.25975 11.1007C7.25975 12.6445 8.28892 14.3169 8.80351 14.9601L8.93215 15.0888C10.8618 17.919 13.1775 19.9773 15.6218 21.0065C17.4228 21.7784 18.7093 22.1643 19.4812 22.1643C19.7384 22.1643 19.9957 22.1643 20.1244 22.0357C21.0249 21.7784 22.1827 21.1351 22.44 20.4919C22.6973 19.8487 22.6973 19.3341 22.6973 19.0768C22.5687 19.0768 22.5687 18.9481 22.44 18.9481L22.1827 18.8195C20.7676 18.0476 19.6098 17.533 19.4812 17.533C19.3525 17.533 19.3525 17.4044 19.2239 17.6617L19.0952 17.7903C18.7093 18.3049 18.3233 18.8195 18.066 19.2054C17.6801 19.5914 16.9082 19.72 16.3936 19.4627H16.265C15.7504 19.2054 14.4639 18.6909 12.9202 17.4044C12.0197 16.6325 11.2478 15.6033 10.4759 14.4455C9.96132 13.6736 10.4759 13.0304 10.7332 12.7731C10.7332 12.6445 10.8618 12.3872 10.9905 12.2585C11.1191 12.1299 11.1191 12.1299 11.2478 12.0012C11.5051 11.7439 11.5051 11.7439 11.6337 11.4867C11.6337 11.4867 11.6337 11.358 11.6337 11.2294C11.5051 11.2294 10.9905 9.9429 10.6046 9.04237L10.3473 8.27049C10.2186 8.0132 10.09 7.88455 10.09 7.88455H9.96132C9.70403 7.88455 9.57538 7.88455 9.57538 7.88455Z" fill="#6C4B1C"/>
</svg>
