<svg viewBox="0 0 34 25" fill="none" xmlns="http://www.w3.org/2000/svg">
<path d="M26.5937 0.777771H6.99091C3.42198 0.777771 0.518555 3.66091 0.518555 7.20471V18.0218C0.518555 21.5656 3.42198 24.4487 6.99091 24.4487H26.5937C30.1626 24.4487 33.0661 21.5656 33.0661 18.0218V7.20471C33.0661 3.66091 30.1626 0.777771 26.5937 0.777771ZM31.7376 18.0218C31.7376 20.8403 29.43 23.1337 26.5937 23.1337H6.99091C4.15463 23.1337 1.84703 20.8403 1.84703 18.0218V7.20471C1.84703 4.38616 4.15463 2.09282 6.99091 2.09282H26.5937C29.43 2.09282 31.7376 4.38616 31.7376 7.20471V18.0218Z" fill="#6C4B1C"/>
<path d="M22.6778 12.3754L13.4748 7.03933C13.2705 6.92091 13.0155 6.91894 12.8089 7.03617C12.6023 7.15335 12.4749 7.37099 12.4749 7.60664V18.2774C12.4749 18.513 12.6023 18.7307 12.8085 18.8478C12.911 18.906 13.0252 18.9349 13.1391 18.9349C13.2552 18.9349 13.371 18.9047 13.4748 18.8447L22.6778 13.51C22.8811 13.3921 23.0063 13.1761 23.0063 12.9426C23.0063 12.7092 22.8814 12.4932 22.6778 12.3754ZM13.8033 17.1302V8.75383L21.0275 12.9426L13.8033 17.1302Z" fill="#6C4B1C"/>
</svg>
